<mxfile host="Electron" modified="2024-05-20T09:37:57.776Z" agent="Mozilla/5.0 (Windows NT 10.0; Win64; x64) AppleWebKit/537.36 (KHTML, like Gecko) draw.io/24.4.0 Chrome/120.0.6099.109 Electron/28.1.0 Safari/537.36" etag="V0cF7RFNF-3lXKatQBgU" version="24.4.0" type="device">
  <diagram name="Seite-1" id="Istlq3-P4NaRur7MBP4g">
    <mxGraphModel dx="1821" dy="2230" grid="1" gridSize="10" guides="1" tooltips="1" connect="1" arrows="1" fold="1" page="1" pageScale="1" pageWidth="827" pageHeight="1169" math="0" shadow="0">
      <root>
        <mxCell id="0" />
        <mxCell id="1" parent="0" />
        <mxCell id="gtaeN6OUMr1vXqJ7nPdY-51" style="rounded=0;orthogonalLoop=1;jettySize=auto;html=1;endArrow=classic;endFill=1;startArrow=classic;startFill=1;" edge="1" parent="1" source="gtaeN6OUMr1vXqJ7nPdY-1" target="gtaeN6OUMr1vXqJ7nPdY-46">
          <mxGeometry relative="1" as="geometry" />
        </mxCell>
        <mxCell id="gtaeN6OUMr1vXqJ7nPdY-57" style="edgeStyle=orthogonalEdgeStyle;rounded=0;orthogonalLoop=1;jettySize=auto;html=1;endArrow=classic;endFill=1;startArrow=classic;startFill=1;" edge="1" parent="1" source="gtaeN6OUMr1vXqJ7nPdY-1" target="gtaeN6OUMr1vXqJ7nPdY-55">
          <mxGeometry relative="1" as="geometry" />
        </mxCell>
        <mxCell id="gtaeN6OUMr1vXqJ7nPdY-1" value="Flint&#xa;192.168.178.2" style="shape=image;verticalLabelPosition=top;labelBackgroundColor=default;verticalAlign=bottom;aspect=fixed;imageAspect=0;image=https://static.gl-inet.com/www/images/products/gl-ax1800/ax1800_1.jpg;fontStyle=1;horizontal=1;labelBorderColor=none;labelPosition=center;align=center;" vertex="1" parent="1">
          <mxGeometry x="380" y="-20" width="110" height="110" as="geometry" />
        </mxCell>
        <mxCell id="gtaeN6OUMr1vXqJ7nPdY-48" style="rounded=0;orthogonalLoop=1;jettySize=auto;html=1;entryX=1;entryY=0.5;entryDx=0;entryDy=0;endArrow=none;endFill=0;" edge="1" parent="1" source="gtaeN6OUMr1vXqJ7nPdY-2" target="gtaeN6OUMr1vXqJ7nPdY-46">
          <mxGeometry relative="1" as="geometry" />
        </mxCell>
        <mxCell id="gtaeN6OUMr1vXqJ7nPdY-2" value="Client A&lt;div&gt;192.168.8.176&lt;/div&gt;" style="image;points=[];aspect=fixed;html=1;align=center;shadow=0;dashed=0;image=img/lib/allied_telesis/computer_and_terminals/Personal_Computer.svg;fontStyle=1" vertex="1" parent="1">
          <mxGeometry x="560" y="69.99999999999999" width="45.6" height="61.800000000000004" as="geometry" />
        </mxCell>
        <mxCell id="gtaeN6OUMr1vXqJ7nPdY-49" style="rounded=0;orthogonalLoop=1;jettySize=auto;html=1;entryX=1;entryY=0.5;entryDx=0;entryDy=0;endArrow=none;endFill=0;" edge="1" parent="1" source="gtaeN6OUMr1vXqJ7nPdY-4" target="gtaeN6OUMr1vXqJ7nPdY-46">
          <mxGeometry relative="1" as="geometry" />
        </mxCell>
        <mxCell id="gtaeN6OUMr1vXqJ7nPdY-4" value="Client B&lt;br&gt;192.168.8.219" style="image;html=1;image=img/lib/clip_art/telecommunication/iPhone_128x128.png;fontStyle=1" vertex="1" parent="1">
          <mxGeometry x="542.8" y="300" width="80" height="80" as="geometry" />
        </mxCell>
        <mxCell id="gtaeN6OUMr1vXqJ7nPdY-47" style="edgeStyle=orthogonalEdgeStyle;rounded=0;orthogonalLoop=1;jettySize=auto;html=1;entryX=0;entryY=0.5;entryDx=0;entryDy=0;endArrow=classic;endFill=1;startArrow=classic;startFill=1;" edge="1" parent="1" source="gtaeN6OUMr1vXqJ7nPdY-11" target="gtaeN6OUMr1vXqJ7nPdY-46">
          <mxGeometry relative="1" as="geometry" />
        </mxCell>
        <mxCell id="gtaeN6OUMr1vXqJ7nPdY-11" value="Internet" style="outlineConnect=0;dashed=0;verticalLabelPosition=bottom;verticalAlign=top;align=center;html=1;shape=mxgraph.aws3.internet_2;fillColor=#D2D3D3;gradientColor=none;fontStyle=1" vertex="1" parent="1">
          <mxGeometry x="80" y="192.44" width="110" height="70.5" as="geometry" />
        </mxCell>
        <mxCell id="gtaeN6OUMr1vXqJ7nPdY-46" value="Fritz!Box&#xa;192.168.178.1" style="shape=image;verticalLabelPosition=bottom;labelBackgroundColor=default;verticalAlign=top;aspect=fixed;imageAspect=0;image=https://avm.de/fileadmin/user_upload/Global/Produkte/FRITZBox/5590/fritzbox_5590_fiber_left_de_wi-fi_6_640x400.png;fontStyle=1" vertex="1" parent="1">
          <mxGeometry x="310" y="185.38" width="135.39" height="84.62" as="geometry" />
        </mxCell>
        <mxCell id="gtaeN6OUMr1vXqJ7nPdY-56" style="rounded=0;orthogonalLoop=1;jettySize=auto;html=1;entryX=1;entryY=0.5;entryDx=0;entryDy=0;endArrow=none;endFill=0;" edge="1" parent="1" source="gtaeN6OUMr1vXqJ7nPdY-55" target="gtaeN6OUMr1vXqJ7nPdY-46">
          <mxGeometry relative="1" as="geometry" />
        </mxCell>
        <mxCell id="gtaeN6OUMr1vXqJ7nPdY-55" value="NAS&#xa;192.168.178.210" style="shape=image;verticalLabelPosition=bottom;labelBackgroundColor=default;verticalAlign=top;aspect=fixed;imageAspect=0;image=https://www.logicaldoc.de/images/qnas/Synology-Devices.png;fontStyle=1" vertex="1" parent="1">
          <mxGeometry x="640" y="185.38" width="102.8" height="69.55" as="geometry" />
        </mxCell>
      </root>
    </mxGraphModel>
  </diagram>
</mxfile>
